<?xml version="1.0" encoding="UTF-8" standalone="no"?>
<!-- Created with Inkscape (http://www.inkscape.org/) -->

<svg
   width="210mm"
   height="297mm"
   viewBox="0 0 210 297"
   version="1.1"
   id="svg1"
   xml:space="preserve"
   inkscape:version="1.4.2 (ebf0e940, 2025-05-08)"
   sodipodi:docname="icon.svg"
   xmlns:inkscape="http://www.inkscape.org/namespaces/inkscape"
   xmlns:sodipodi="http://sodipodi.sourceforge.net/DTD/sodipodi-0.dtd"
   xmlns="http://www.w3.org/2000/svg"
   xmlns:svg="http://www.w3.org/2000/svg"><sodipodi:namedview
     id="namedview1"
     pagecolor="#ffffff"
     bordercolor="#000000"
     borderopacity="0.25"
     inkscape:showpageshadow="2"
     inkscape:pageopacity="0.0"
     inkscape:pagecheckerboard="0"
     inkscape:deskcolor="#d1d1d1"
     inkscape:document-units="mm"
     inkscape:zoom="2.2546414"
     inkscape:cx="442.86422"
     inkscape:cy="410.2648"
     inkscape:window-width="1728"
     inkscape:window-height="757"
     inkscape:window-x="0"
     inkscape:window-y="40"
     inkscape:window-maximized="0"
     inkscape:current-layer="g2" /><defs
     id="defs1" /><rect
     style="fill:#233038;stroke:none;stroke-width:0.428453;stroke-linecap:round;stroke-linejoin:round;stroke-opacity:1;fill-opacity:1"
     id="rect3"
     width="40.483776"
     height="40.483776"
     x="-8.3913841"
     y="-1.9609599"
     transform="matrix(1.2350627,0,0,1.2350627,100.13703,83.393764)"
     inkscape:export-filename="icon.png"
     inkscape:export-xdpi="260.09604"
     inkscape:export-ydpi="260.09604" /><g
     style="fill:none;stroke:#fdf0d5;stroke-width:2;stroke-linecap:round;stroke-linejoin:round;stroke-opacity:1"
     id="g1"
     transform="matrix(1.0642293,0,0,1.0642293,101.45357,56.21828)"><path
       d="m 15.657567,35.490563 -3,-3 3,-3"
       id="path2"
       style="stroke:#cccccc;stroke-opacity:1" /><path
       d="m 12.657567,32.490563 h 5 c 1.104569,0 2,0.895431 2,2 l 0,5.496989"
       id="path3"
       sodipodi:nodetypes="cssc"
       style="stroke:#cccccc;stroke-opacity:1" /></g><g
     style="fill:none;stroke:currentColor;stroke-width:2;stroke-linecap:round;stroke-linejoin:round"
     id="g2"
     transform="matrix(1.2350627,0,0,1.2350627,100.13703,83.393764)"><circle
       cx="6"
       cy="6"
       r="3"
       id="circle1-9"
       inkscape:export-filename="circle1-9.png"
       inkscape:export-xdpi="512.53003"
       inkscape:export-ydpi="512.53003"
       style="stroke:#cccccc;stroke-opacity:1" /><path
       d="M 6,9 6,32.712496"
       id="path1-9"
       sodipodi:nodetypes="cc"
       style="fill:none;stroke:#cccccc;stroke-opacity:1" /><path
       d="m 18.062977,24.037058 v 3.5"
       id="path4"
       style="stroke:#cccccc;stroke-opacity:1" /><circle
       cx="18.062977"
       cy="30.537058"
       r="3"
       id="circle4"
       style="stroke:#cccccc;stroke-opacity:1" /></g><g
     style="fill:none;stroke:currentColor;stroke-width:2;stroke-linecap:round;stroke-linejoin:round"
     id="g3"
     transform="matrix(0.46507414,0,0,0.46507414,116.76823,100.15228)"><path
       d="m 20,13 c 0,5 -3.5,7.5 -7.66,8.95 A 1,1 0 0 1 11.67,21.94 C 7.5,20.5 4,18 4,13 V 6 A 1,1 0 0 1 5,5 C 7,5 9.5,3.8 11.24,2.28 a 1.17,1.17 0 0 1 1.52,0 C 14.51,3.81 17,5 19,5 a 1,1 0 0 1 1,1 z"
       id="path1-7"
       style="stroke:#f50451;stroke-opacity:1;fill:#500b27;fill-opacity:0.6501767" /><path
       d="M 12,22 V 2"
       id="path2-2"
       style="stroke:#f50451;stroke-opacity:1" /></g></svg>
